<svg id="Objects" xmlns="http://www.w3.org/2000/svg" viewBox="0 0 1296 1433.1481"><defs><style>.cls-1{fill:#5f130d;}.cls-2{fill:#ffba55;}.cls-3{fill:#ff966c;}.cls-4{fill:#113c54;}.cls-5{fill:#fc571e;}.cls-6{fill:#357092;}.cls-7{fill:#18c95f;}.cls-8{fill:#b62e34;}.cls-9{fill:#008236;}.cls-10{fill:#8bc3c0;}.cls-11{fill:#f9d8ad;}</style></defs><path class="cls-1" d="M962.7008,1370.7322a100.4584,100.4584,0,0,0,17.6543-3.7469,37.74834,37.74834,0,0,0,9.0929-3.8792c8.4663-5.3344,12.5282-15.3622,15.8026-24.818a534.45022,534.45022,0,0,0,21.9414-85.7986c1.1139-6.5934,2.1789-13.377,4.4125-19.6305q-5.1723-9.01845-10.3446-18.037c-1.9656-3.427-4.0796-7.0076-7.4922-8.9983-3.4123-1.9906-8.5193-1.6594-10.5264,1.7434l-25.9271,19.3991c-12.3273,23.1121-6.5427,51.4837-12.0285,77.097a176.01838,176.01838,0,0,1-6.402,21.0983c-4.6521,13.3028-13.6892,26.6119-11.5042,40.5343a24.271,24.271,0,0,0,1.232,4.8073A43.18924,43.18924,0,0,0,962.7008,1370.7322Z"/><path class="cls-2" d="M1044.1716,1256.5238a31.74822,31.74822,0,0,0-3.7474-8.2866q-4.40985-7.68915-8.8197-15.3782c-2.2336,6.2535-3.2986,13.0371-4.4125,19.6305a534.45022,534.45022,0,0,1-21.9414,85.7986c-3.2744,9.4558-7.3363,19.4836-15.8026,24.818a37.74834,37.74834,0,0,1-9.0929,3.8792,100.4584,100.4584,0,0,1-17.6543,3.7469,43.18924,43.18924,0,0,1-14.0893-.2291,10.92847,10.92847,0,0,0,5.2442,6.3373,16.22974,16.22974,0,0,0,6.4099,1.1278c11.3195.4307,23.251.542,33.1942-4.8847,13.8613-7.565,20.3143-23.8872,23.6656-39.3188,3.3514-15.4315,4.8678-31.7782,13.1247-45.2387C1036.5289,1278.29,1046.9384,1268.2091,1044.1716,1256.5238Z"/><path class="cls-1" d="M707.9174,819.4929l-18.9712-39.1895-93.33342-52.1781-71.7919,42.6099c3.4477,8.9419,10.44512,18.1061,18.6936,22.9853,8.2486,4.8791,17.5011,7.7718,26.7286,10.3598C601.48578,813.1233,657.6128,819.4929,707.9174,819.4929Z"/><path class="cls-3" d="M1003.527,1167.0931c-13.3025-58.9322-29.5496-117.3585-59.6099-169.4647-8.3875-14.5387-17.8252-28.5319-24.7203-43.8347-9.5242-21.1378-13.9291-44.1597-18.2582-66.9363q-7.363-38.73975-14.7261-77.4795L756.5451,821.2292a2255.46567,2255.46567,0,0,0,134.1818,270.8379c20.0301,34.4166,40.9983,68.3755,60.3997,103.1343C970.8898,1194.3561,989.4105,1182.6273,1003.527,1167.0931Z"/><path class="cls-3" d="M649.0278,856.5884q17.507-41.617,35.014-83.2339L569.88128,742.3613c-7.2632,28.8554-14.5438,57.8025-18.1411,87.3397-.9065,7.4427-1.56118,14.9481-1.8808,22.4611C582.67828,848.6631,616.10218,850.9814,649.0278,856.5884Z"/><path class="cls-4" d="M644.1967,868.0725q2.4156-5.74215,4.8311-11.4841c-32.92562-5.607-66.34952-7.9253-99.16842-4.4263-.7858,18.468.5103,36.9824,5.4859,54.7285,5.0589,18.0435,13.7845,34.8561,23.5514,50.8489q4.33575,7.09965,8.9396,14.0132c29.5042-5.9952,58.34-23.5218,77.55052-47.261a290.49777,290.49777,0,0,0-25.6445-33.2473A60.668,60.668,0,0,1,644.1967,868.0725Z"/><path class="cls-3" d="M743.9713,1079.7998c-26.7097-51.6814-46.6867-107.5435-78.5845-155.3081-19.2105,23.7392-48.04632,41.2658-77.55052,47.261,32.1769,48.4433,73.25862,90.6936,109.60652,136.1821C714.8825,1102.7121,731.5897,1092.9054,743.9713,1079.7998Z"/><path class="cls-5" d="M625.25637,523.5478a50.41466,50.41466,0,0,1-19.51,37.7789,10.54124,10.54124,0,0,1-3.5645,1.9834,11.1682,11.1682,0,0,1-5.0707-.1966,102.79158,102.79158,0,0,1-35.1705-14.3302,23.1302,23.1302,0,0,1-6.4073-5.5053,9.19627,9.19627,0,0,1-1.6846-8.0111,11.602,11.602,0,0,1,4.2997-5.3188,34.02567,34.02567,0,0,1,19.2944-6.9788Z"/><path class="cls-3" d="M586.291,561.6402c-1.80742,3.581-3.252,7.6785-2.52922,11.6905a7.3138,7.3138,0,0,0,1.5635,3.5539,5.85979,5.85979,0,0,0,5.337,1.7102,13.242,13.242,0,0,0,5.2868-2.4229,40.30357,40.30357,0,0,0,14.457-18.5914c1.0308-2.6629,1.7993-5.6961.8804-8.4075a7.07786,7.07786,0,0,0-6.308-4.723C596.59308,544.1384,589.78738,554.7128,586.291,561.6402Z"/><path class="cls-5" d="M611.28648,549.173a7.07786,7.07786,0,0,0-6.308-4.723c-.0199-.0007-.03948.0008-.0594.0002a2.84971,2.84971,0,0,1,1.4026,2.4784c1.8836,13.1851-6.089,22.8219-15.5006,31.6338a13.49963,13.49963,0,0,0,5.1281-2.3905,40.304,40.304,0,0,0,14.4569-18.5914C611.437,554.9176,612.20538,551.8844,611.28648,549.173Z"/><path class="cls-3" d="M572.22828,558.427c-1.8074,3.581-3.252,7.6785-2.5292,11.6905a7.31367,7.31367,0,0,0,1.5634,3.5539,5.86006,5.86006,0,0,0,5.3371,1.7102,13.24326,13.24326,0,0,0,5.2868-2.4229,40.30338,40.30338,0,0,0,14.4569-18.5914c1.0309-2.6629,1.7994-5.6961.8805-8.4075a7.07788,7.07788,0,0,0-6.3081-4.723C582.53028,540.9252,575.72458,551.4996,572.22828,558.427Z"/><path class="cls-3" d="M558.97828,552.2536c-1.8074,3.581-3.252,7.6785-2.5292,11.6905a7.31367,7.31367,0,0,0,1.5634,3.5539,5.86006,5.86006,0,0,0,5.3371,1.7102,13.2419,13.2419,0,0,0,5.2868-2.4229,40.30338,40.30338,0,0,0,14.4569-18.5914c1.0309-2.6629,1.7994-5.6961.8805-8.4075a7.078,7.078,0,0,0-6.3081-4.723C569.28028,534.7518,562.47458,545.3262,558.97828,552.2536Z"/><path class="cls-5" d="M583.97378,539.7864a7.07814,7.07814,0,0,0-6.3081-4.723c-.0199-.0007-.0394.0008-.0593.0002a2.84983,2.84983,0,0,1,1.4025,2.4784c1.8836,13.1851-6.08888,22.8219-15.5006,31.6338a13.49838,13.49838,0,0,0,5.1281-2.3905,40.30273,40.30273,0,0,0,14.4569-18.5914C584.12418,545.531,584.89268,542.4978,583.97378,539.7864Z"/><path class="cls-3" d="M544.91558,546.5036c-1.8074,3.581-3.2521,7.6785-2.5292,11.6905a7.31275,7.31275,0,0,0,1.5634,3.5539,5.85981,5.85981,0,0,0,5.337,1.7102,13.24155,13.24155,0,0,0,5.2869-2.4229,40.30338,40.30338,0,0,0,14.4569-18.5914c1.0309-2.6629,1.79942-5.6961.88042-8.4075a7.078,7.078,0,0,0-6.308-4.723C555.21758,529.0018,548.41188,539.5762,544.91558,546.5036Z"/><path class="cls-5" d="M569.911,534.0364a7.07794,7.07794,0,0,0-6.308-4.723c-.01992-.0007-.03952.0008-.05942.0002a2.84971,2.84971,0,0,1,1.4026,2.4784c1.8836,13.1851-6.089,22.8219-15.5006,31.6338a13.49907,13.49907,0,0,0,5.1281-2.3905,40.30338,40.30338,0,0,0,14.4569-18.5914C570.06148,539.781,570.83,536.7478,569.911,534.0364Z"/><path class="cls-3" d="M609.305,477.688a61.94969,61.94969,0,0,1-22.50992,18.7957c-7.2572,3.556-15.057,3.6253-22.93908,5.4101a14.1785,14.1785,0,0,0-5.67362,2.6241,100.84436,100.84436,0,0,0-17.895,17.6417c-5.6013,7.1072-6.612,17.434-11.4543,25.0786-.72208,1.14-1.5083,2.4073-1.2829,3.7379.2925,1.7257,2.1636,2.7224,3.8932,2.9907,4.2867.665,8.5708-1.5558,11.6923-4.5681s5.3759-6.7883,8.0282-10.2209c2.6522-3.4327,5.9196-6.6632,10.086-7.8709,3.05412-.8853,5.54312,1.2055,8.7046,1.5454,6.0667.6524,12.5521,1.2306,17.9476-1.6187,10.8273,2.9102,22.7172,4.5928,32.4453-.9808,5.86779-3.3618,9.90129-9.4587,11.53342-16.0213a38.39414,38.39414,0,0,0-.9028-20.0283c-1.45953-4.9311-3.76223-9.7769-7.61353-13.1846C619.51318,477.6108,614.13118,475.9121,609.305,477.688Z"/><path class="cls-5" d="M597.22378,545.9598a7.078,7.078,0,0,0-6.3081-4.723c-.0199-.0007-.0394.0008-.0593.0002a2.84983,2.84983,0,0,1,1.4025,2.4784c1.8836,13.1851-6.08888,22.8219-15.5006,31.6338a13.49988,13.49988,0,0,0,5.1281-2.3905,40.30273,40.30273,0,0,0,14.4569-18.5914C597.37418,551.7044,598.14268,548.6712,597.22378,545.9598Z"/><path class="cls-4" d="M645.9462,507.292s-34.13762-.231-46.09082,11.8553c0,0,11.1408,28.2997,48.86582,32.9722Z"/><path class="cls-6" d="M624.28337,497.4033c-26.07009,93.5801-75.56259,179.4337-100.46249,273.3319,26.8104-7.2008,57.1482-6.4492,83.3487,2.7257a278.04991,278.04991,0,0,1,25.583,10.9247q37.58235,17.55375,75.1647,35.1074a435.98167,435.98167,0,0,0,16.077-47.4475c7.6921,22.03,16.7042,42.6778,24.3963,64.7077,14.4356,10.5285,34.1154,12.2643,51.9704,12.9246,41.6311,1.5395,84.6907-7.9686,118.1261-32.8199-6.8664-37.2481-15.6086-73.7647-29.9104-108.8365-7.915-19.4095-15.2421-39.7151-20.5964-60.3945q-14.19105-54.80955-28.3822-109.6193Z"/><path class="cls-4" d="M768.0089,600.7574a321.68428,321.68428,0,0,0-64.1911,52.9367c-.7856-6.9423-.4079-14.2025,3.9153-19.6908s10.0621-9.6743,15.8984-13.5148A162.006,162.006,0,0,1,768.0089,600.7574Z"/><path class="cls-4" d="M748.4336,568.86c18.5343,8.0413,36.9532,16.4107,55.9926,23.1702a422.71862,422.71862,0,0,0,52.9794,14.7547q-8.90355-34.38855-17.8076-68.7773L624.28337,497.4033q-3.38145,12.138-7.26749,24.1094c13.85729,1.8277,27.61952,6.4492,40.84512,11.2348C688.4288,543.8082,718.6119,555.9217,748.4336,568.86Z"/><path class="cls-4" d="M702.945,696.3608c-2.5779-8.4551-5.606-16.765-8.6326-25.0701q-12.6354-34.6719-25.2708-69.3439a57.84622,57.84622,0,0,0-1.9958,29.6102c2.9946,15.2743,12.0466,28.7878,15.4744,43.9707,3.0766,13.6272,1.4631,27.8353-.511,41.6653a835.265,835.265,0,0,1-16.1104,82.6743q21.00915,9.81285,42.0186,19.6256a436.0224,436.0224,0,0,0,16.0769-47.4474c-3.6582-15.2377-9.8352-31.5465-13.4934-46.7841C708.176,715.5776,705.8493,705.8868,702.945,696.3608Z"/><path class="cls-5" d="M554.41508,367.562a107.87615,107.87615,0,0,1-31.8413-13.9652c-1.6365-1.0617-4.0167-2.0944-5.2994-.6247a3.29626,3.29626,0,0,0-.661,1.5601c-.7308,3.712,1.0469,7.6053,3.8438,10.1528a22.02284,22.02284,0,0,0,10.1665,4.7492Z"/><path class="cls-1" d="M681.1145,180.0743a257.31607,257.31607,0,0,1,23.4194-80.5875c2.6732-5.5769,5.5948-11.2101,6.2802-17.3564a25.38512,25.38512,0,0,0-8.7034-21.8215,20.21214,20.21214,0,0,0-1.6352-11.7151c-2.3817-4.7534-7.3223-7.7567-12.4046-9.3176-5.0824-1.5609-10.4434-1.9198-15.677-2.8561a44.91488,44.91488,0,0,1-16.9392-6.2751c-4.3797-2.8912-7.9834-6.7848-11.8288-10.356C633.4227,10.3132,620.93877,2.8318,607.19038.6233c-13.7485-2.2086-28.8026,1.4248-38.5802,11.3393a24.22923,24.22923,0,0,0-6.5584,10.8774c-1.9894,7.9671,1.6281,16.1468,5.1564,23.5618-4.6593,1.2079-9.4237,3.3317-11.989,7.4045-3.0815,4.8927-2.1441,11.4905.806,16.4635,2.9502,4.973,7.5866,8.6768,12.1205,12.2653q10.3416,8.18535,20.6831,16.3706Z"/><path class="cls-7" d="M837.1181,436.1381a28.98192,28.98192,0,0,1,4.4289-5.7482l-5.1008-36.5451,8.4021-3.4762,13.8437,13.0905c-8.0034-35.9841-24.0929-69.5833-40.2783-102.7033-10.1882-20.8479-20.9452-42.2768-38.6902-57.2285-12.3454-10.4022-27.3525-17.0303-42.1344-23.5201-15.6605-6.8756-28.9264-15.8031-46.6476-20.0102-13.0122.2077-26.5129,3.2118-38.8272,7.4207-24.80443,8.4779-50.45142,17.456-69.40242,35.5665-3.4454,3.2926-6.7326,7.0362-8.0154,11.6259a26.73481,26.73481,0,0,0-.3767,10.0798c1.59622,14.6632,6.7756,28.6647,11.9125,42.4911-4.2861,50.611,6.6361,89.6421,8.6708,101.4983,6.2442,36.3856,5.6075,73.5564,4.9523,110.468,15.5528-3.6589,34.22052-1.5138,49.62852,2.7138q44.53065,12.2181,89.3348,23.4083c40.0154,9.9941,81.9192,17.6572,122.428,9.901-6.8005-26.8784-14.7302-41.8645-22.8005-72.8784C839.1704,466.7641,829.7775,449.8404,837.1181,436.1381Z"/><path class="cls-8" d="M836.4462,393.8448l5.1008,36.5451c.3457-.3764.6915-.7521,1.0337-1.1292a90.27839,90.27839,0,0,0,16.1113-25.8016l-13.8437-13.0905Z"/><path class="cls-9" d="M780.5779,443.2068a437.84731,437.84731,0,0,1-53.7962-119.2283c-3.4121-12.1563,2.1221-25.4465,7.3309-36.9481a168.19319,168.19319,0,0,0-13.06,21.7528c-3.959,7.888-7.3571,16.8887-4.9231,25.3722,3.1371,10.9339,14.9918,17.6136,18.2406,28.5148a209.35627,209.35627,0,0,1-20.9678-12.1608c4.0403,11.1904,12.7728,19.8996,20.1686,29.219a144.3386,144.3386,0,0,1,19.5303,32.7092,54.779,54.779,0,0,1-25.4756,13.4963c-9.4552,2.0332-19.1621,3.0576-28.342,6.1013,23.7823,13.7665,54.9464,6.5393,79.8116,18.2369A5.39413,5.39413,0,0,0,780.5779,443.2068Z"/><path class="cls-3" d="M581.01388,89.0904c-1.3396,14.5268-2.3476,29.1601-1.0518,43.691,1.2957,14.5308,4.9878,29.0455,12.4935,41.5551,3.3698,5.6164,7.9573,11.1069,14.3087,12.7062a23.74234,23.74234,0,0,0,10.8175-.3069,54.764,54.764,0,0,0,13.82852-5.057c8.8506,10.2704,16.3145,22.8661,19.0973,36.1352a62.95217,62.95217,0,0,0-7.8734,25.9532c-.281,4.7724.4169,10.3167,4.417,12.9347,4.6284,3.0292,10.7904.399,15.413-2.639a96.92026,96.92026,0,0,0,36.025-43.5215c-6.8315-24.1116-19.48-47.424-20.7231-72.4539,5.1418,4.5686,15.0542,3.7507,20.0597-.9669,5.0056-4.7175,6.7661-12.1141,6.1309-18.9629-.4855-5.2354-2.6354-10.8308-7.3287-13.201-3.911-1.9752-8.663-1.2363-12.7573.3237a35.56056,35.56056,0,0,0-19.4557,18.2437q-1.1079-6.5262-2.2156-13.0524c-7.8699-5.8943-15.2958-13.4352-16.9216-23.1324-1.4996-8.9451,2.2716-17.8409,5.957-26.1283-16.7735,11.777-34.555,23.9415-54.95352,25.9292Z"/><path class="cls-5" d="M597.494,146.4667a.70965.70965,0,0,0,.37418-.0249c.2323-.1051.2823-.4072.2993-.6617a62.55458,62.55458,0,0,0-.0534-9.0478,4.52115,4.52115,0,0,0-.3484-1.6487c-2.1058-4.3032-8.3085-1.0273-8.1701,2.9651A9.05915,9.05915,0,0,0,597.494,146.4667Z"/><path class="cls-4" d="M645.9539,102.6523a433.7339,433.7339,0,0,1,58.2289-.1537l5.6804-15.6571s-37.167-4.2006-71.917,0Z"/><path class="cls-6" d="M649.0122,115.765a108.86738,108.86738,0,0,0-.7892-20.0505c-.5189-3.9131-1.3379-7.9905-3.8692-11.0193-4.3951-5.2588-10.8896-6.2442-17.74033-6.045-17.13919.4982-34.16029,2.8742-51.02847,6.0184q2.60787-.3357,5.21548-.6507,9.788-1.1808,19.59-2.2398c6.42852-.6946,12.9017-1.3505,19.3499-.8721,3.48629.2586,7.17289.9557,9.71569,3.3547,2.00333,1.89,3.01923,4.5825,3.82233,7.2171a74.273,74.273,0,0,1,2.4258,32.3471,9.64893,9.64893,0,0,1-1.383,4.266,8.83428,8.83428,0,0,1-3.72853,2.6866c-5.181,2.3289-10.892,3.1557-16.523,3.9022q-22.4634,2.97765-45.06268,4.7688c-1.99632.1582-4.02232.3024-6.03672.3175,1.3108.4389,2.6708.768,4.0138,1.0866,5.9123,1.4023,12.0708,2.809,18.0027,1.4917,3.1264-.6944,6.1021-2.1336,9.29822-2.3383a33.53964,33.53964,0,0,1,7.16878.7663,62.68127,62.68127,0,0,0,22.55979-1.1117c6.4238-1.3773,14.57383-3.1206,20.31743-6.3652C650.486,129.8183,648.6962,121.7318,649.0122,115.765Z"/><path class="cls-4" d="M569.007,139.4485q22.58892-1.79,45.06268-4.7688c5.631-.7465,11.342-1.5733,16.523-3.9022a8.83428,8.83428,0,0,0,3.72853-2.6866,9.64893,9.64893,0,0,0,1.383-4.266,74.273,74.273,0,0,0-2.4258-32.3471c-.8031-2.6346-1.819-5.3271-3.82233-7.2171-2.5428-2.399-6.2294-3.0961-9.71569-3.3547-6.4482-.4784-12.92138.1775-19.3499.8721q-9.8019,1.05885-19.59,2.2398-2.60685.3144-5.21548.6507-5.31813.9912-10.61592,2.0722c-3.8777.789-7.9912,1.7352-10.7563,4.566-2.201,2.2533-3.2222,5.3955-3.8789,8.4762a50.20106,50.20106,0,0,0,2.9615,30.0767c1.3094,3.0436,3.01262,6.0589,5.7124,7.9796a14.92746,14.92746,0,0,0,3.9625,1.9267C564.98468,139.7509,567.01068,139.6067,569.007,139.4485Z"/><circle class="cls-6" cx="625.32117" cy="103.167" r="2.625"/><circle class="cls-6" cx="555.93878" cy="112.8813" r="2.625"/><path class="cls-8" d="M593.94948,158.9687q19.40085-6.4755,38.94572-12.5084a60.64578,60.64578,0,0,1-9.72143,17.4013c-2.4919,3.0902-5.65529,6.101-9.60769,6.472-3.7306.3501-7.2594-1.7601-10.0628-4.2462A74.5097,74.5097,0,0,0,593.94948,158.9687Z"/><path class="cls-5" d="M650.387,183.7228c3.2567-8.3667,11.8369-14.3237,13.2575-23.1887-10.5954,7.696-21.0385,14.3515-32.2342,21.1447,7.8473,9.1061,14.5967,20.0418,17.9676,31.6525C650.1752,203.5778,646.7935,192.9548,650.387,183.7228Z"/><path class="cls-5" d="M686.947,111.9743a12.15021,12.15021,0,0,1,3.3544-2.3491,6.05517,6.05517,0,0,1,7.3954,8.8373,15.19336,15.19336,0,0,0-2.1026-4.792,5.65927,5.65927,0,0,0-4.4177-2.4787,3.53754,3.53754,0,0,0-3.5329,3.1782c2.5374.9861,3.5395,3.9903,4.1241,6.6491.4644,2.1123.7739,4.5881-.6685,6.1996a6.993,6.993,0,0,1-4.1406,1.7651,13.89152,13.89152,0,0,1-4.15.2961C672.148,127.9442,683.8169,114.7423,686.947,111.9743Z"/><path class="cls-3" d="M522.88388,419.4111A10.18515,10.18515,0,0,1,521.333,402.322a19.40408,19.40408,0,0,1-5.85512-4.8313c-1.4742-2.0783-2.0294-5.0252-.6543-7.1703,1.3013-2.0298,4.42542-3.8586,5.5611-5.9855-1.425-1.7657-3.5415-2.8045-5.29668-4.2424-1.75512-1.438-3.24252-3.6779-2.62872-5.8623.448-1.5942,1.88672-2.691,3.31-3.5373,6.603-3.9257,14.478-4.9566,22.1136-5.7979,5.3652-.5912,10.9258-1.111,16.0513.5814,4.6184,1.5251,8.4667,4.7107,12.2734,7.738,12.19242,9.6958,24.9003,21.106,39.5695,26.3481,52.61542,18.8022,110.13162,25.106,165.66912,31.2295,17.3191-18.4174,39.2972-37.357,61.6951-49.0823,5.3281,3.912,7.6968,5.2028,11.7069,8.6589,4.598,33.9234,8.3403,55.4276,8.6299,82.6069.1383,12.9829-.2606,26.1937-4.3103,38.5296-2.1588,6.5758-5.6986,13.1961-11.8042,16.4556a26.78034,26.78034,0,0,1-10.479,2.6512c-15.0301,1.2398-29.9154-3.0721-44.2873-7.6426a1062.86115,1062.86115,0,0,1-169.88212-70.7539c-12.47918-6.5186-26.8991-3.5674-40.389-7.5977-8.9291-2.6676-17.7227-6.1653-27.0023-7.0209-5.5876-.5152-11.4974-.117-16.4921-2.6741C523.837,432.3655,519.09338,423.5486,522.88388,419.4111Z"/><path class="cls-5" d="M771.4462,430.792s35.5,2.3333,56.8333,4.6666C828.2795,435.4586,812.9462,423.792,771.4462,430.792Z"/><path class="cls-5" d="M545.78328,404.1873c-8.4114-4.6587-18.5032-4.6301-27.9806-6.2535a24.17989,24.17989,0,0,1-2.3731-.5208c.0172.025.0307.053.0482.0777a19.4057,19.4057,0,0,0,5.85522,4.8313c-.00822.0064-.01512.0142-.02332.0207.4464.0319.893.0632,1.3389.0969Q534.216,403.31335,545.78328,404.1873Z"/><path class="cls-5" d="M544.25508,380.5613c-9.2624-4.4307-20.5497.2114-30.4204-2.6161-.2674-.0766-.5365-.1629-.8041-.2582a8.74078,8.74078,0,0,0,2.05742,2.4055c1.46118,1.197,3.16738,2.123,4.522,3.4165,1.15948-.2303,2.32408-.4256,3.485-.5857C530.12908,381.9531,537.29528,381.9688,544.25508,380.5613Z"/><path class="cls-5" d="M548.91918,420.0246q-15.318-2.1273-30.4808-5.2208a10.32863,10.32863,0,0,0,4.4455,4.6073,4.82435,4.82435,0,0,0-.3876.5236C531.25628,419.4409,540.27368,421.7889,548.91918,420.0246Z"/><path class="cls-4" d="M623.89947,457.9727a339.276,339.276,0,0,0,4.2552-51.2139,51.54309,51.54309,0,0,1,19.18033,4.2399c2.0295,20.0359,2.3135,37.7555-2.4873,57.3133Z"/><ellipse class="cls-6" cx="638.94617" cy="428.5294" rx="16.66669" ry="17.9292"/><ellipse class="cls-10" cx="640.27949" cy="428.5294" rx="11.33332" ry="13.6262"/><path class="cls-9" d="M762.9558,388.2943q8.0982-33.7926,19.0794-66.8064a46.93125,46.93125,0,0,1-.9727,20.6645,91.94686,91.94686,0,0,1-4.3201,12.0042C772.0804,365.4414,767.6178,377.0094,762.9558,388.2943Z"/><path class="cls-2" d="M532.47878,741.274c-3.1176,9.7448-6.0312,19.5561-8.6579,29.4612,26.8103-7.2008,57.1482-6.4493,83.3487,2.7257a277.9949,277.9949,0,0,1,25.583,10.9247q37.58235,17.55375,75.1648,35.1073c2.5599-6.3458,4.8679-12.4663,7.0185-18.5769-56.449-24.0989-110.80442-57.7094-171.86112-59.73C539.57328,741.07,536.02348,741.0903,532.47878,741.274Z"/><path class="cls-2" d="M742.7827,821.4282c1.918,5.0574,3.8013,10.1509,5.6078,15.3249,14.4358,10.5286,34.1155,12.2643,51.9705,12.9246,41.6311,1.5396,84.6906-7.9685,118.1261-32.8198q-1.72185-9.3402-3.6244-18.6138A314.28623,314.28623,0,0,1,742.7827,821.4282Z"/><path class="cls-11" d="M757.9949,1105.2853c-4.9225-8.339-9.5639-16.8559-14.0236-25.4855-12.3816,13.1056-29.0888,22.9123-46.5285,28.135,16.528,20.6844,32.0775,42.0383,45.3657,64.9487,1.6135,2.782,3.4828,5.823,6.57,6.7249a11.01951,11.01951,0,0,0,5.4834-.1824,45.65083,45.65083,0,0,0,31.9393-27.5945C775.4325,1137.2499,767.3941,1121.2077,757.9949,1105.2853Z"/><path class="cls-1" d="M781.9462,1177.792c2.9801-9.6853,12.0659-16.5955,21.0544-23.625a46.82949,46.82949,0,0,0-7.8845-7.7876c-4.2847-3.3203-9.3892-6.1772-11.5765-11.1367-1.2187-2.7632-3.4975-6.7219-6.5064-6.9803,1.0607,6.3782.9974,13.3659-2.5585,18.766-5.4343,8.2528-16.655,9.869-26.5007,10.707q-9.1995.783-18.3994,1.566c-2.9229.2487-6.1802.667-8.0237,2.9486-2.9647,3.6693-.2349,9.0359,2.4949,12.883-1.7111,16.4085-4.23,33.7002-8.8384,49.541-4.6185,15.8758-20.3276,28.3436-19.78,44.8685.1236,3.7307,1.2229,7.8558,3.6679,10.4536C736.0415,1254.9922,768.3748,1223.7839,781.9462,1177.792Z"/><path class="cls-2" d="M803.0006,1154.167c-8.9885,7.0295-18.0743,13.9397-21.0544,23.625-13.5714,45.9919-45.9047,77.2002-82.8509,102.2041a8.03728,8.03728,0,0,0,3.5342,2.2446c2.3618.7189,4.9153.2529,7.291-.4183,8.6941-2.4567,16.407-7.5299,23.5921-13.007a152.53555,152.53555,0,0,0,23.4198-21.7119c4.8465-5.6443,9.1648-11.7175,13.4753-17.7811q18.8943-26.5782,37.7885-53.1563c3.3337-4.6894.9238-12.8425-2.1377-17.714A46.60591,46.60591,0,0,0,803.0006,1154.167Z"/><path class="cls-11" d="M1003.527,1167.0931c-14.1165,15.5342-32.6372,27.263-52.4004,28.1083,12.4781,22.3553,17.2164,25.6976,27.7191,49.0559,1.2918,2.873,2.2586,5.2795,5.2343,6.3197,9.5764,3.3461,32.0837-5.9434,30.8662-18.4518C1013.5639,1217.9245,1006.7257,1181.2639,1003.527,1167.0931Z"/><polygon class="cls-10" points="596.688 676.648 434.75 1339.648 478 1339.648 635.364 676.648 596.688 676.648"/><polygon class="cls-10" points="195.663 676.648 33.725 1339.648 76.975 1339.648 234.339 676.648 195.663 676.648"/><path class="cls-10" d="M373,581.5927H121L70.69309,478.4213a10.96974,10.96974,0,0,1,9.86-15.7775H308.14458a10.96968,10.96968,0,0,1,9.86,6.1619Z"/><path class="cls-6" d="M351.354,581.5927h-252L49.04709,478.4213a10.96971,10.96971,0,0,1,9.86-15.7775H286.49858a10.96954,10.96954,0,0,1,9.8599,6.1619Z"/><path class="cls-4" d="M366,1411.5518H0l5.24309-53.8844a42.75122,42.75122,0,0,1,42.5503-38.611H375Z"/><path class="cls-6" d="M580.027,1345.8612,535.5,1319.0563H370.94258a42.75133,42.75133,0,0,0-42.5504,38.6111l-5.243,53.8845H1296v-.0001a65.69062,65.69062,0,0,0-65.6906-65.6906Z"/><polygon class="cls-4" points="462.33 1433.148 407.17 1433.148 391.5 1411.552 478 1411.552 462.33 1433.148"/><polygon class="cls-4" points="88.603 1433.148 33.443 1433.148 17.773 1411.552 104.273 1411.552 88.603 1433.148"/><polygon class="cls-4" points="1258.127 1433.148 1202.967 1433.148 1187.297 1411.552 1273.797 1411.552 1258.127 1433.148"/><polygon class="cls-4" points="884.4 1433.148 829.24 1433.148 813.57 1411.552 900.07 1411.552 884.4 1433.148"/><path class="cls-4" d="M785.3881,694.6481H564.04588a84.06713,84.06713,0,0,1-45.9434-13.6265l-121.1318-78.7827a45.16013,45.16013,0,0,0-24.67968-7.3198H84.46629l-1.5049,6.4345,58.5101,42.4332a62.271,62.271,0,0,0,36.5586,11.8613h67.50249c10.5736,0,19.579,8.222,19.9547,18.7888A19.5005,19.5005,0,0,1,246,694.6481H165.37679a62.271,62.271,0,0,1-36.5586-11.8613l-75.7708-54.9512a25.89742,25.89742,0,0,1-10.0367-26.917l5.8361-24.9554a25.95409,25.95409,0,0,1,25.2723-20.0441H372.291a84.06908,84.06908,0,0,1,45.94338,13.6264l121.1318,78.7827a45.16153,45.16153,0,0,0,24.6797,7.3199H785.8555a19.50041,19.50041,0,0,1,19.4873,20.2111C804.9671,686.4261,795.9616,694.6481,785.3881,694.6481Z"/><path class="cls-10" d="M243.09908,517.3306H124.24459a11.90886,11.90886,0,0,1-10.7219-6.7261l-5.6181-11.6226a5.80816,5.80816,0,0,1,5.2206-8.3537H233.62868a5.80832,5.80832,0,0,1,5.2206,3.2625l8.2562,17.048A4.45159,4.45159,0,0,1,243.09908,517.3306Z"/><path class="cls-4" d="M250.78118,517.3306H131.92669a11.90886,11.90886,0,0,1-10.7219-6.7261l-5.6181-11.6226a5.80816,5.80816,0,0,1,5.2206-8.3537H241.31078a5.8083,5.8083,0,0,1,5.2206,3.2625l8.2562,17.048A4.45159,4.45159,0,0,1,250.78118,517.3306Z"/></svg>